<?xml version="1.0" standalone="no"?>
<!DOCTYPE svg PUBLIC "-//W3C//DTD SVG 20010904//EN"
 "http://www.w3.org/TR/2001/REC-SVG-20010904/DTD/svg10.dtd">
<svg version="1.0" xmlns="http://www.w3.org/2000/svg"
 width="700.000000pt" height="700.000000pt" viewBox="0 0 700.000000 700.000000"
 preserveAspectRatio="xMidYMid meet">
<metadata>
Created by potrace 1.11, written by Peter Selinger 2001-2013
</metadata>
<g transform="translate(0.000000,700.000000) scale(0.100000,-0.100000)"
fill="#000000" stroke="none">
<path d="M4153 6776 c-98 -123 -567 -714 -1043 -1314 -476 -600 -867 -1091
-870 -1091 -3 0 -281 387 -619 860 l-614 860 -21 -33 c-11 -18 -238 -375 -503
-793 l-483 -760 0 -2252 0 -2253 3500 0 c1925 0 3500 2 3500 5 0 2 -392 827
-871 1832 l-870 1828 -445 1635 c-245 899 -449 1650 -455 1668 -6 17 -15 32
-19 32 -5 0 -89 -101 -187 -224z m362 -1961 l346 -1280 740 -1556 c406 -855
739 -1558 739 -1562 0 -4 -241 -7 -535 -7 l-535 0 0 144 0 143 -901 1182
c-496 649 -904 1181 -908 1181 -4 0 -290 -297 -635 -659 l-628 -660 -47 29
c-25 16 -424 267 -886 558 l-840 530 -3 766 -2 766 301 475 c166 261 305 475
308 475 3 -1 272 -374 596 -830 325 -456 593 -829 596 -830 3 0 439 547 969
1215 530 668 967 1212 971 1208 3 -5 163 -584 354 -1288z m-361 -3345 l696
-914 0 -73 0 -73 -2215 0 -2215 0 0 975 c0 536 2 975 6 975 3 0 412 -257 910
-570 497 -314 910 -573 918 -576 9 -3 222 213 591 601 557 585 579 606 596
588 9 -10 331 -430 713 -933z"/>
</g>
</svg>
